<?xml version="1.0" encoding="UTF-8" standalone="no"?>
<!-- Created with Inkscape (http://www.inkscape.org/) -->

<svg
   xmlns:dc="http://purl.org/dc/elements/1.1/"
   xmlns:cc="http://creativecommons.org/ns#"
   xmlns:rdf="http://www.w3.org/1999/02/22-rdf-syntax-ns#"
   xmlns:svg="http://www.w3.org/2000/svg"
   xmlns="http://www.w3.org/2000/svg"
   xmlns:sodipodi="http://sodipodi.sourceforge.net/DTD/sodipodi-0.dtd"
   xmlns:inkscape="http://www.inkscape.org/namespaces/inkscape"
   version="1.1"
   id="svg29"
   xml:space="preserve"
   width="793.66296"
   height="1122.4819"
   viewBox="0 0 793.66296 1122.4819"
   sodipodi:docname="Sem_título_1.jpg.svg"
   inkscape:version="0.92.4 (f8dce91, 2019-08-02)"><metadata
     id="metadata35"><rdf:RDF><cc:Work
         rdf:about=""><dc:format>image/svg+xml</dc:format><dc:type
           rdf:resource="http://purl.org/dc/dcmitype/StillImage" /><dc:title></dc:title></cc:Work></rdf:RDF></metadata><defs
     id="defs33"><clipPath
       clipPathUnits="userSpaceOnUse"
       id="clipPath45"><path
         d="M 0,0 H 595.2 V 841.8 H 0 Z"
         id="path43"
         inkscape:connector-curvature="0"
         style="clip-rule:evenodd" /></clipPath></defs><sodipodi:namedview
     pagecolor="#ffffff"
     bordercolor="#666666"
     borderopacity="1"
     objecttolerance="10"
     gridtolerance="10"
     guidetolerance="10"
     inkscape:pageopacity="0"
     inkscape:pageshadow="2"
     inkscape:window-width="1366"
     inkscape:window-height="713"
     id="namedview31"
     showgrid="false"
     inkscape:zoom="0.47394972"
     inkscape:cx="396.83148"
     inkscape:cy="561.24097"
     inkscape:window-x="0"
     inkscape:window-y="27"
     inkscape:window-maximized="1"
     inkscape:current-layer="g37" /><g
     id="g37"
     inkscape:groupmode="layer"
     inkscape:label="Sem_título_1"
     transform="matrix(1.3333333,0,0,-1.3333333,0,1122.4819)"><g
       id="g39"><g
         id="g41"
         clip-path="url(#clipPath45)"><path
           d="M 0,841.8 H 595.2 V -0.1 H 0 Z"
           style="fill:#ffffff;fill-opacity:1;fill-rule:evenodd;stroke:none"
           id="path47"
           inkscape:connector-curvature="0" /><g
           id="g49"><path
             d="M 71.9,498 H 540.6"
             style="fill:none;stroke:#3465a4;stroke-width:0.75;stroke-linecap:butt;stroke-linejoin:round;stroke-miterlimit:10;stroke-dasharray:none;stroke-opacity:1"
             id="path51"
             inkscape:connector-curvature="0" /></g><path
           d="M 277.8,756.8 288.9,210.5"
           style="fill:none;stroke:#000000;stroke-width:0.1;stroke-linecap:butt;stroke-linejoin:miter;stroke-miterlimit:10;stroke-dasharray:none;stroke-opacity:1"
           id="path53"
           inkscape:connector-curvature="0" /><path
           d="m 289.1,198.3 4,12.9 -8.5,-0.2 z"
           style="fill:#000000;fill-opacity:1;fill-rule:evenodd;stroke:none"
           id="path55"
           inkscape:connector-curvature="0" /><g
           id="g57"><text
             transform="matrix(1,0,0,-1,78,785.1)"
             style="font-variant:normal;font-weight:normal;font-size:18px;font-family:'Liberation Sans';-inkscape-font-specification:LiberationSans;writing-mode:lr-tb;fill:#000000;fill-opacity:1;fill-rule:nonzero;stroke:none"
             id="text61"><tspan
               x="0"
               y="0"
               id="tspan59">É</tspan></text>
</g><g
           id="g63"><text
             transform="matrix(1,0,0,-1,463.5,779.4)"
             style="font-variant:normal;font-weight:normal;font-size:18px;font-family:'Liberation Sans';-inkscape-font-specification:LiberationSans;writing-mode:lr-tb;fill:#000000;fill-opacity:1;fill-rule:nonzero;stroke:none"
             id="text67"><tspan
               x="0 12.906 24.893999 38.970001 43.956001"
               y="0"
               sodipodi:role="line"
               id="tspan65">NÃO É</tspan></text>
</g><g
           id="g69"><text
             transform="matrix(1,0,0,-1,66.6,467.6)"
             style="font-variant:normal;font-weight:normal;font-size:18px;font-family:'Liberation Sans';-inkscape-font-specification:LiberationSans;writing-mode:lr-tb;fill:#000000;fill-opacity:1;fill-rule:nonzero;stroke:none"
             id="text73"><tspan
               x="0 10.008 21.996"
               y="0"
               sodipodi:role="line"
               id="tspan71">FAZ</tspan></text>
</g><g
           id="g75"><text
             transform="matrix(1,0,0,-1,460.6,467.6)"
             style="font-variant:normal;font-weight:normal;font-size:18px;font-family:'Liberation Sans';-inkscape-font-specification:LiberationSans;writing-mode:lr-tb;fill:#000000;fill-opacity:1;fill-rule:nonzero;stroke:none"
             id="text79"><tspan
               x="0 12.996 24.983999 38.970001 44.046001 53.945999 65.933998"
               y="0"
               sodipodi:role="line"
               id="tspan77">NÃO FAZ</tspan></text>
</g><g
           id="g81"><text
             transform="matrix(1,0,0,-1,80.8,748.2)"
             style="font-variant:normal;font-weight:normal;font-size:18px;font-family:'Liberation Sans';-inkscape-font-specification:LiberationSans;writing-mode:lr-tb;fill:#000000;fill-opacity:1;fill-rule:nonzero;stroke:none"
             id="text85"><tspan
               x="0 11.988 16.974001 29.969999 44.964001 49.950001 62.945999 75.942001 87.138 104.22 114.12 126.108 139.104"
               y="0"
               sodipodi:role="line"
               id="tspan83">É UM CRAWLER </tspan></text>
</g><g
           id="g87"><text
             transform="matrix(1,0,0,-1,80.8,728.1)"
             style="font-variant:normal;font-weight:normal;font-size:18px;font-family:'Liberation Sans';-inkscape-font-specification:LiberationSans;writing-mode:lr-tb;fill:#000000;fill-opacity:1;fill-rule:nonzero;stroke:none"
             id="text91"><tspan
               x="0 13.986 26.982 38.970001 42.966 54.953999 67.860001 79.848 84.834 94.842003 99.828003 110.934 115.92 129.996"
               y="0"
               sodipodi:role="line"
               id="tspan89">QUE AUXILIA O </tspan></text>
</g><g
           id="g93"><text
             transform="matrix(1,0,0,-1,80.8,707.9)"
             style="font-variant:normal;font-weight:normal;font-size:18px;font-family:'Liberation Sans';-inkscape-font-specification:LiberationSans;writing-mode:lr-tb;fill:#000000;fill-opacity:1;fill-rule:nonzero;stroke:none"
             id="text97"><tspan
               x="0 11.988 25.974001 38.970001 43.956001 56.952 69.858002 78.552002 89.244003 103.23 116.226 121.212 134.20799 145.20599"
               y="0"
               sodipodi:role="line"
               id="tspan95">AGRICULTOR NA </tspan></text>
</g><g
           id="g99"><text
             transform="matrix(1,0,0,-1,80.8,687.8)"
             style="font-variant:normal;font-weight:normal;font-size:18px;font-family:'Liberation Sans';-inkscape-font-specification:LiberationSans;writing-mode:lr-tb;fill:#000000;fill-opacity:1;fill-rule:nonzero;stroke:none"
             id="text103"><tspan
               x="0 10.692 24.677999 39.672001 51.66 64.655998 75.653999 80.639999 93.636002 105.624"
               y="0"
               sodipodi:role="line"
               id="tspan101">TOMADA DE </tspan></text>
</g><g
           id="g105"><text
             transform="matrix(1,0,0,-1,80.8,667.6)"
             style="font-variant:normal;font-weight:normal;font-size:18px;font-family:'Liberation Sans';-inkscape-font-specification:LiberationSans;writing-mode:lr-tb;fill:#000000;fill-opacity:1;fill-rule:nonzero;stroke:none"
             id="text109"><tspan
               x="0 12.906 24.983999 37.889999 42.966 54.953999 66.851997"
               y="0"
               sodipodi:role="line"
               id="tspan107">DECISÃO</tspan></text>
</g><g
           id="g111"><text
             transform="matrix(1,0,0,-1,80.8,623.5)"
             style="font-variant:normal;font-weight:normal;font-size:18px;font-family:'Liberation Sans';-inkscape-font-specification:LiberationSans;writing-mode:lr-tb;fill:#000000;fill-opacity:1;fill-rule:nonzero;stroke:none"
             id="text115"><tspan
               x="0 11.988 23.976 33.875999 38.952 51.858002 62.549999 73.638 78.624001 90.612 104.688"
               y="0"
               sodipodi:role="line"
               id="tspan113">APLICATIVO </tspan></text>
</g><g
           id="g117"><text
             transform="matrix(1,0,0,-1,80.8,603.3)"
             style="font-variant:normal;font-weight:normal;font-size:18px;font-family:'Liberation Sans';-inkscape-font-specification:LiberationSans;writing-mode:lr-tb;fill:#000000;fill-opacity:1;fill-rule:nonzero;stroke:none"
             id="text121"><tspan
               x="0 11.988 16.974001 28.062"
               y="0"
               sodipodi:role="line"
               id="tspan119">SITE</tspan></text>
</g><g
           id="g123"><text
             transform="matrix(1,0,0,-1,82.9,566.8)"
             style="font-variant:normal;font-weight:normal;font-size:18px;font-family:'Liberation Sans';-inkscape-font-specification:LiberationSans;writing-mode:lr-tb;fill:#000000;fill-opacity:1;fill-rule:nonzero;stroke:none"
             id="text127"><tspan
               x="0 5.0760002 19.062"
               y="0"
               sodipodi:role="line"
               id="tspan125">IOT</tspan></text>
</g><g
           id="g129"><text
             transform="matrix(1,0,0,-1,324.6,680.2)"
             style="font-variant:normal;font-weight:normal;font-size:18px;font-family:'Liberation Sans';-inkscape-font-specification:LiberationSans;writing-mode:lr-tb;fill:#000000;fill-opacity:1;fill-rule:nonzero;stroke:none"
             id="text133"><tspan
               x="0 12.906 24.893999 38.970001 43.956001 55.944 61.02 73.926003 88.919998 93.905998 105.894 118.89 132.966 145.87199 158.868 169.47 183.54601"
               y="0"
               sodipodi:role="line"
               id="tspan131">NÃO É UM PRODUTO </tspan></text>
</g><g
           id="g135"><text
             transform="matrix(1,0,0,-1,324.6,660)"
             style="font-variant:normal;font-weight:normal;font-size:18px;font-family:'Liberation Sans';-inkscape-font-specification:LiberationSans;writing-mode:lr-tb;fill:#000000;fill-opacity:1;fill-rule:nonzero;stroke:none"
             id="text139"><tspan
               x="0 10.98 15.966 28.044001 33.029999 46.026001"
               y="0"
               sodipodi:role="line"
               id="tspan137">FISICO</tspan></text>
</g><g
           id="g141"><text
             transform="matrix(1,0,0,-1,324.6,620.7)"
             style="font-variant:normal;font-weight:normal;font-size:18px;font-family:'Liberation Sans';-inkscape-font-specification:LiberationSans;writing-mode:lr-tb;fill:#000000;fill-opacity:1;fill-rule:nonzero;stroke:none"
             id="text145"><tspan
               x="0 12.906 24.893999 38.970001 43.956001 55.944 61.938 74.933998 88.919998 103.914 115.902 128.89799 141.804"
               y="0"
               sodipodi:role="line"
               id="tspan143">NÃO E-COMERCE</tspan></text>
</g><g
           id="g147"><text
             transform="matrix(1,0,0,-1,355.7,422.2)"
             style="font-variant:normal;font-weight:normal;font-size:18px;font-family:'Liberation Sans';-inkscape-font-specification:LiberationSans;writing-mode:lr-tb;fill:#000000;fill-opacity:1;fill-rule:nonzero;stroke:none"
             id="text151"><tspan
               x="0 12.996 24.983999 37.98 42.966 54.953999 68.940002 81.017998 93.005997 97.991997 109.98 123.966 135.054 140.03999 153.036 165.942"
               y="0"
               sodipodi:role="line"
               id="tspan149">DECISÕES SOZINHO</tspan></text>
</g><g
           id="g153"><text
             transform="matrix(1,0,0,-1,80.8,422.2)"
             style="font-variant:normal;font-weight:normal;font-size:18px;font-family:'Liberation Sans';-inkscape-font-specification:LiberationSans;writing-mode:lr-tb;fill:#000000;fill-opacity:1;fill-rule:nonzero;stroke:none"
             id="text157"><tspan
               x="0 9.8999996 21.978001 34.883999 39.959999 49.860001 54.936001 64.529999 75.528 79.524002 90.522003 95.220001 105.822 119.898 134.892 146.88 159.786 170.892"
               y="0"
               sodipodi:role="line"
               id="tspan155">FACILITA A TOMADA </tspan></text>
</g><g
           id="g159"><text
             transform="matrix(1,0,0,-1,80.8,402.1)"
             style="font-variant:normal;font-weight:normal;font-size:18px;font-family:'Liberation Sans';-inkscape-font-specification:LiberationSans;writing-mode:lr-tb;fill:#000000;fill-opacity:1;fill-rule:nonzero;stroke:none"
             id="text163"><tspan
               x="0 12.906 24.983999 29.969999 42.966 54.953999 67.860001 72.935997 84.834 96.912003 110.898 115.884 128.88 142.866"
               y="0"
               sodipodi:role="line"
               id="tspan161">DE DECISÃO DO </tspan></text>
</g><g
           id="g165"><text
             transform="matrix(1,0,0,-1,80.8,381.9)"
             style="font-variant:normal;font-weight:normal;font-size:18px;font-family:'Liberation Sans';-inkscape-font-specification:LiberationSans;writing-mode:lr-tb;fill:#000000;fill-opacity:1;fill-rule:nonzero;stroke:none"
             id="text169"><tspan
               x="0 11.988 25.974001 38.970001 43.956001 56.952 69.858002 78.552002 89.244003 103.23"
               y="0"
               sodipodi:role="line"
               id="tspan167">AGRICULTOR</tspan></text>
</g><g
           id="g171"><text
             transform="matrix(1,0,0,-1,46.8,337.2)"
             style="font-variant:normal;font-weight:normal;font-size:18px;font-family:'Liberation Sans';-inkscape-font-specification:LiberationSans;writing-mode:lr-tb;fill:#000000;fill-opacity:1;fill-rule:nonzero;stroke:none"
             id="text175"><tspan
               x="0 14.994 26.982 31.968 46.043999 58.950001 64.026001 76.014 81 92.987999 97.973999 109.962 115.038 124.938 130.01401 142.92 154.908 167.90401 179.892 184.87801 197.87399 211.86"
               y="0"
               sodipodi:role="line"
               id="tspan173">MAIOR VISIBILIDADE DO </tspan></text>
</g><g
           id="g177"><text
             transform="matrix(1,0,0,-1,46.8,317.1)"
             style="font-variant:normal;font-weight:normal;font-size:18px;font-family:'Liberation Sans';-inkscape-font-specification:LiberationSans;writing-mode:lr-tb;fill:#000000;fill-opacity:1;fill-rule:nonzero;stroke:none"
             id="text181"><tspan
               x="0 14.994 26.982 39.888 52.883999 64.872002 77.778 91.853996 96.839996 107.928 120.834 131.922 144.828 157.82401"
               y="0"
               sodipodi:role="line"
               id="tspan179">MERCADO FUTURO</tspan></text>
</g><g
           id="g183"><text
             transform="matrix(1,0,0,-1,52.4,260.7)"
             style="font-variant:normal;font-weight:normal;font-size:18px;font-family:'Liberation Sans';-inkscape-font-specification:LiberationSans;writing-mode:lr-tb;fill:#000000;fill-opacity:1;fill-rule:nonzero;stroke:none"
             id="text187"><tspan
               x="0 11.988 24.983999 36.972 49.967999 54.953999 67.949997 79.848 93.924004 99 111.906 123.894 128.88 141.87601 153.864 166.86 180.84599"
               y="0"
               sodipodi:role="line"
               id="tspan185">PREDIÇÃO DE DADOS</tspan></text>
</g><g
           id="g189"><text
             transform="matrix(1,0,0,-1,63.8,201.1)"
             style="font-variant:normal;font-weight:normal;font-size:18px;font-family:'Liberation Sans';-inkscape-font-specification:LiberationSans;writing-mode:lr-tb;fill:#000000;fill-opacity:1;fill-rule:nonzero;stroke:none"
             id="text193"><tspan
               x="0 12.906 24.983999 37.889999 51.875999 63.863998"
               y="0"
               sodipodi:role="line"
               id="tspan191">DADOS </tspan></text>
</g><g
           id="g195"><text
             transform="matrix(1,0,0,-1,63.8,181)"
             style="font-variant:normal;font-weight:normal;font-size:18px;font-family:'Liberation Sans';-inkscape-font-specification:LiberationSans;writing-mode:lr-tb;fill:#000000;fill-opacity:1;fill-rule:nonzero;stroke:none"
             id="text199"><tspan
               x="0 11.988 23.976 33.57 44.262001 55.242001 60.228001 72.216003 83.304001 88.290001 101.286 115.272"
               y="0"
               sodipodi:role="line"
               id="tspan197">ESTATISTICOS</tspan></text>
</g><g
           id="g201"><text
             transform="matrix(1,0,0,-1,63.8,124.6)"
             style="font-variant:normal;font-weight:normal;font-size:18px;font-family:'Liberation Sans';-inkscape-font-specification:LiberationSans;writing-mode:lr-tb;fill:#000000;fill-opacity:1;fill-rule:nonzero;stroke:none"
             id="text205"><tspan
               x="0 11.988 23.976 34.956001 47.952 60.948002 74.933998 79.919998 92.916 104.904"
               y="0"
               sodipodi:role="line"
               id="tspan203">ESTUDO DE </tspan></text>
</g><g
           id="g207"><text
             transform="matrix(1,0,0,-1,63.8,104.5)"
             style="font-variant:normal;font-weight:normal;font-size:18px;font-family:'Liberation Sans';-inkscape-font-specification:LiberationSans;writing-mode:lr-tb;fill:#000000;fill-opacity:1;fill-rule:nonzero;stroke:none"
             id="text211"><tspan
               x="0 11.988 16.974001 28.962 40.950001 46.026001 55.925999 61.001999 73.907997 85.896004 98.891998"
               y="0"
               sodipodi:role="line"
               id="tspan209">VIABILIDADE</tspan></text>
</g></g></g></g></svg>